#!OML:ASF H:\GeneralSubjects\Female5\Project 1\Capture day 1\Session 1\Female5.ASF
:FULLY-SPECIFIED
:DEGREES
34
root -37.5698 16.2876 -2.09209 -169.201 -2.70623 -177.054
lowerback 5.13372 1.50431 2.83584
upperback -10.2978 1.68671 1.6636
thorax -14.1199 0.232951 0.0597166
lowerneck -17.5369 -1.45906 -0.394554
upperneck 35.328 -5.6603 1.37365
head 15.4036 -3.31443 -0.668524
rclavicle -7.70291e-015 4.6118e-014
rhumerus -53.8712 25.2234 -94.1395
rradius 32.2894
rwrist -6.05805
rhand -23.8272 -15.6512
rfingers 7.12502
rthumb 2.64424 -45.6146
lclavicle -7.70291e-015 4.6118e-014
lhumerus -46.9621 -1.48067 78.0301
lradius 29.1644
lwrist -0.607118
lhand -18.1881 22.9708
lfingers 7.12502
lthumb 8.0888 52.796
rfemur -0.240181 24.7027 35.8618
rtibia -6.15026
rfoot -26.4309 -22.7516
rtoes 10.8847
lfemur 0.930309 -41.0681 -27.7781
ltibia -4.36306
lfoot -41.1741 0.536749
ltoes -20.2541
35
root -37.5762 16.2866 -2.09599 -169.205 -2.72606 -176.96
lowerback 5.10899 1.49789 2.89409
upperback -10.2734 1.68794 1.68546
thorax -14.074 0.230488 0.050855
lowerneck -17.6118 -1.44535 -0.207414
upperneck 35.3834 -5.63336 1.17423
head 15.4329 -3.3042 -0.782909
rclavicle 2.83268e-015 -2.78299e-015
rhumerus -54.0374 25.2969 -94.2686
rradius 32.479
rwrist -6.24133
rhand -23.6806 -15.4489
rfingers 7.12502
rthumb 2.78578 -45.4104
lclavicle 2.83268e-015 -2.78299e-015
lhumerus -46.9263 -1.2592 77.9549
lradius 29.206
lwrist -0.807697
lhand -19.298 23.815
lfingers 7.12502
lthumb 7.0175 53.6787
rfemur -0.185766 23.7874 35.9652
rtibia -6.53731
rfoot -23.7888 -24.2086
rtoes 3.78277
lfemur 1.01924 -41.3183 -27.7553
ltibia -4.40381
lfoot -41.3331 0.180278
ltoes -19.4179
36
root -37.582 16.2859 -2.09935 -169.179 -2.71116 -176.927
lowerback 5.07374 1.50676 2.82106
upperback -10.2482 1.69524 1.71626
thorax -14.0243 0.245921 0.124016
lowerneck -17.7175 -1.47506 -0.25007
upperneck 35.387 -5.68856 1.25962
head 15.4655 -3.31549 -0.751818
rclavicle 8.69683e-015 2.46493e-014
rhumerus -54.1153 25.33 -94.2753
rradius 32.5677
rwrist -6.29395
rhand -23.5831 -15.564
rfingers 7.12502
rthumb 2.88001 -45.5243
lclavicle 8.69683e-015 2.46493e-014
lhumerus -46.8557 -0.87713 77.8198
lradius 29.2999
lwrist -0.978899
lhand -21.998 25.5993
lfingers 7.12502
lthumb 4.41066 55.5334
rfemur -0.323212 22.8373 35.9565
rtibia -6.60615
rfoot -21.6642 -24.7912
rtoes -1.6148
lfemur 1.06472 -41.5267 -27.7885
ltibia -4.39493
lfoot -41.5349 0.0456148
ltoes -19.0857
37
root -37.5882 16.2854 -2.10357 -169.113 -2.67329 -176.958
lowerback 4.97167 1.51357 2.7875
upperback -10.2416 1.69243 1.69988
thorax -13.9515 0.247436 0.126198
lowerneck -17.7021 -1.44503 -0.383071
upperneck 35.3522 -5.67183 1.47315
head 15.4588 -3.29545 -0.634606
rclavicle -2.18663e-015 3.97569e-015
rhumerus -54.1646 25.3565 -94.3412
rradius 32.5732
rwrist -6.34085
rhand -23.7226 -16.3955
rfingers 7.12502
rthumb 2.74528 -46.3576
lclavicle -2.18663e-015 3.97569e-015
lhumerus -46.8141 -0.884105 77.7841
lradius 29.3594
lwrist -0.965955
lhand -21.4534 25.2205
lfingers 7.12502
lthumb 4.93657 55.143
rfemur -0.268768 24.7467 35.8861
rtibia -6.23628
rfoot -26.5059 -22.6823
rtoes 11.2152
lfemur 1.06842 -41.8503 -27.8782
ltibia -4.41784
lfoot -41.9709 0.117599
ltoes -19.2104
38
root -37.5942 16.284 -2.10647 -169.078 -2.65398 -176.982
lowerback 4.89468 1.49398 2.81543
upperback -10.2351 1.66129 1.67068
thorax -13.8934 0.228177 0.0843639
lowerneck -17.6241 -1.37946 -0.540893
upperneck 35.3564 -5.61461 1.69308
head 15.4565 -3.26756 -0.503828
rclavicle 2.04748e-014 -5.56597e-015
rhumerus -54.129 25.2101 -94.3343
rradius 32.4535
rwrist -6.10038
rhand -23.8297 -16.6872
rfingers 7.12502
rthumb 2.64187 -46.6506
lclavicle 2.04748e-014 -5.56597e-015
lhumerus -46.8264 -1.02873 77.8186
lradius 29.4169
lwrist -0.717103
lhand -21.6041 25.2119
lfingers 7.12502
lthumb 4.79108 55.1377
rfemur -0.19075 24.2807 35.8207
rtibia -6.62082
rfoot -24.9125 -23.5532
rtoes 7.3516
lfemur 1.08291 -42.0604 -27.9554
ltibia -4.44594
lfoot -42.2584 0.432833
ltoes -19.4493
39
root -37.5993 16.2824 -2.11063 -169.089 -2.62402 -176.979
lowerback 4.88767 1.47886 2.84631
upperback -10.2247 1.64278 1.64295
thorax -13.8749 0.215446 0.0393323
lowerneck -17.6057 -1.36239 -0.55059
upperneck 35.3551 -5.5807 1.67756
head 15.4504 -3.25797 -0.502169
rclavicle 1.59525e-014 2.10712e-014
rhumerus -54.12 25.066 -94.3512
rradius 32.3346
rwrist -5.86668
rhand -23.8046 -16.6516
rfingers 7.12502
rthumb 2.66609 -46.6147
lclavicle 1.59525e-014 2.10712e-014
lhumerus -46.8325 -1.03136 77.7531
lradius 29.3965
lwrist -0.726472
lhand -18.9509 23.6978
lfingers 7.12502
lthumb 7.3525 53.55
rfemur -0.199792 23.6072 35.8101
rtibia -6.77315
rfoot -23.2902 -24.1223
rtoes 3.37986
lfemur 1.21519 -42.3589 -28.0591
ltibia -4.49011
lfoot -42.5588 0.506966
ltoes -19.4485
40
root -37.6052 16.2819 -2.11821 -169.102 -2.59419 -176.936
lowerback 4.86361 1.48045 2.93967
upperback -10.2171 1.65204 1.61347
thorax -13.8467 0.208585 -0.0466286
lowerneck -17.6157 -1.39525 -0.468442
upperneck 35.3017 -5.57223 1.50554
head 15.4164 -3.26274 -0.584671
rclavicle -2.78299e-015 2.38542e-015
rhumerus -54.3558 25.2067 -94.6311
rradius 32.4632
rwrist -6.11673
rhand -23.8497 -16.5095
rfingers 7.12502
rthumb 2.6225 -46.4732
lclavicle -2.78299e-015 2.38542e-015
lhumerus -46.8444 -1.22055 77.7912
lradius 29.3675
lwrist -0.643528
lhand -18.0234 23.4384
lfingers 7.12502
lthumb 8.24772 53.2575
rfemur -0.300077 22.7708 35.8324
rtibia -6.71801
rfoot -21.3736 -24.659
rtoes -1.78964
lfemur 1.38148 -42.6729 -28.1392
ltibia -4.50853
lfoot -42.9407 0.370001
ltoes -19.5187
41
root -37.6122 16.2814 -2.12434 -169.12 -2.61201 -176.866
lowerback 4.82763 1.48663 2.79834
upperback -10.1678 1.65499 1.68021
thorax -13.7711 0.233655 0.10412
lowerneck -17.8207 -1.46521 -0.336925
upperneck 35.3123 -5.65722 1.38141
head 15.4613 -3.28645 -0.678488
rclavicle -1.44119e-015 2.90226e-014
rhumerus -54.6881 25.6267 -94.9033
rradius 32.7979
rwrist -6.67477
rhand -23.9416 -16.3123
rfingers 7.12502
rthumb 2.53375 -46.277
lclavicle -1.44119e-015 2.90226e-014
lhumerus -46.7407 -1.34575 77.8988
lradius 29.3519
lwrist -0.513122
lhand -18.0553 23.7003
lfingers 7.12502
lthumb 8.21697 53.5205
rfemur -0.219152 23.5573 35.9188
rtibia -6.5432
rfoot -23.1478 -24.2921
rtoes 2.24032
lfemur 1.47054 -42.7154 -28.1343
ltibia -4.52807
lfoot -42.9984 -0.0512133
ltoes -19.1159
42
root -37.6198 16.2787 -2.1263 -169.153 -2.63983 -176.807
lowerback 4.86473 1.46574 2.86188
upperback -10.1504 1.63909 1.68125
thorax -13.7726 0.221167 0.0714489
lowerneck -17.8333 -1.46573 -0.381908
upperneck 35.2805 -5.66675 1.46886
head 15.4544 -3.28193 -0.634776
rclavicle -1.62506e-014 -4.37326e-014
rhumerus -54.5687 25.3758 -94.7364
rradius 32.6202
rwrist -6.32519
rhand -23.8713 -16.1487
rfingers 7.12502
rthumb 2.60161 -46.1125
lclavicle -1.62506e-014 -4.37326e-014
lhumerus -46.711 -1.32228 77.8294
lradius 29.3694
lwrist -0.34604
lhand -17.9666 23.5126
lfingers 7.12502
lthumb 8.30259 53.3294
rfemur -0.199459 24.242 35.9602
rtibia -6.26827
rfoot -25.0386 -23.6081
rtoes 6.39204
lfemur 1.58918 -42.9055 -28.1778
ltibia -4.55777
lfoot -43.114 -0.541976
ltoes -18.392
43
root -37.6267 16.2761 -2.12891 -169.15 -2.62711 -176.822
lowerback 4.90362 1.46673 2.87496
upperback -10.1695 1.63999 1.65253
thorax -13.8187 0.217034 0.0323952
lowerneck -17.7509 -1.43466 -0.354067
upperneck 35.2204 -5.6086 1.44671
head 15.4032 -3.25722 -0.634233
rclavicle 6.5102e-015 9.93923e-015
rhumerus -54.3617 24.9161 -94.3926
rradius 32.3599
rwrist -5.72237
rhand -23.6954 -15.882
rfingers 7.12502
rthumb 2.77149 -45.8437
lclavicle 6.5102e-015 9.93923e-015
lhumerus -46.7333 -1.07443 77.6508
lradius 29.3252
lwrist -0.51575
lhand -18.9344 23.7194
lfingers 7.12502
lthumb 7.36851 53.5711
rfemur -0.0992838 25.1735 36.0184
rtibia -6.165
rfoot -26.3093 -23.7145
rtoes 8.19384
lfemur 1.71273 -43.3443 -28.324
ltibia -4.58274
lfoot -43.5113 -0.901334
ltoes -17.9241
44
root -37.6317 16.2763 -2.13314 -169.067 -2.61469 -176.879
lowerback 4.83584 1.46025 2.86514
upperback -10.1992 1.61772 1.62108
thorax -13.8107 0.202585 0.00863675
lowerneck -17.6526 -1.40075 -0.492622
upperneck 35.1503 -5.5479 1.57811
head 15.3553 -3.23305 -0.539802
rclavicle 1.5207e-014 -2.54444e-014
rhumerus -54.6177 25.1437 -94.5033
rradius 32.6249
rwrist -5.92271
rhand -23.6527 -15.8777
rfingers 7.12502
rthumb 2.81273 -45.8389
lclavicle 1.5207e-014 -2.54444e-014
lhumerus -46.7621 -0.710454 77.4414
lradius 29.2235
lwrist -0.974034
lhand -21.8113 24.9271
lfingers 7.12502
lthumb 4.59099 54.8574
rfemur -0.332745 23.7044 35.7486
rtibia -6.26611
rfoot -24.7321 -23.0676
rtoes 6.40963
lfemur 1.66142 -43.5481 -28.3938
ltibia -4.56452
lfoot -43.7148 -1.31806
ltoes -17.6882
45
root -37.6364 16.276 -2.13537 -168.984 -2.62803 -176.839
lowerback 4.75241 1.43394 2.93017
upperback -10.2003 1.58233 1.62988
thorax -13.7583 0.178437 -0.0108692
lowerneck -17.5848 -1.3627 -0.752034
upperneck 35.0609 -5.5097 1.90532
head 15.3178 -3.20512 -0.346978
rclavicle 1.12313e-014 -4.33351e-014
rhumerus -54.258 24.8337 -94.2772
rradius 32.2755
rwrist -5.57759
rhand -23.7637 -15.9069
rfingers 7.12502
rthumb 2.70553 -45.8695
lclavicle 1.12313e-014 -4.33351e-014
lhumerus -46.7708 -0.598481 77.3643
lradius 29.2027
lwrist -1.17512
lhand -22.0266 24.9796
lfingers 7.12502
lthumb 4.38306 54.9143
rfemur -0.474001 24.6215 35.861
rtibia -5.89338
rfoot -25.3178 -23.7841
rtoes 5.72833
lfemur 1.52733 -43.5801 -28.304
ltibia -4.5353
lfoot -43.7573 -1.34898
ltoes -17.5804
46
root -37.6402 16.2749 -2.13858 -168.956 -2.60093 -176.806
lowerback 4.7215 1.42485 2.87254
upperback -10.1664 1.56768 1.64918
thorax -13.7006 0.181817 0.0441704
lowerneck -17.659 -1.35437 -0.82599
upperneck 35.0428 -5.52798 2.07832
head 15.3369 -3.19392 -0.265779
rclavicle -3.08116e-015 -8.34896e-015
rhumerus -53.6649 24.2843 -93.7835
rradius 31.7202
rwrist -4.95548
rhand -23.8303 -15.8846
rfingers 7.12502
rthumb 2.64125 -45.848
lclavicle -3.08116e-015 -8.34896e-015
lhumerus -46.7465 -0.422965 77.2485
lradius 29.2335
lwrist -1.39762
lhand -21.7077 24.563
lfingers 7.12502
lthumb 4.691 54.4911
rfemur -0.536479 24.3541 35.872
rtibia -5.92465
rfoot -24.0846 -24.4723
rtoes 2.67142
lfemur 1.53434 -43.7776 -28.3122
ltibia -4.49781
lfoot -43.9511 -1.19524
ltoes -17.4095
47
root -37.6418 16.2755 -2.1448 -168.935 -2.55139 -176.865
lowerback 4.67149 1.38963 3.16075
upperback -10.209 1.52843 1.50196
thorax -13.7088 0.11946 -0.270266
lowerneck -17.3365 -1.30046 -1.13671
upperneck 34.9514 -5.45624 2.3462
head 15.2363 -3.18309 -0.0802143
rclavicle -1.80894e-014 -1.39149e-014
rhumerus -53.6727 24.1025 -93.8402
rradius 31.6595
rwrist -4.7474
rhand -23.8337 -16.0428
rfingers 7.12502
rthumb 2.63794 -46.0062
lclavicle -1.80894e-014 -1.39149e-014
lhumerus -46.9471 -0.183514 76.9378
lradius 29.2898
lwrist -1.59664
lhand -21.7612 24.5559
lfingers 7.12502
lthumb 4.63935 54.4851
rfemur -0.580663 24.3972 35.7957
rtibia -5.84715
rfoot -23.9087 -24.6574
rtoes 2.32762
lfemur 1.61032 -44.0258 -28.4379
ltibia -4.51586
lfoot -44.1464 -1.1745
ltoes -17.1701
48
root -37.6437 16.2765 -2.15171 -168.895 -2.54026 -176.919
lowerback 4.59618 1.40757 2.72879
upperback -10.1826 1.5096 1.55444
thorax -13.6419 0.162671 0.0310125
lowerneck -17.3957 -1.31371 -0.574998
upperneck 34.9048 -5.45185 1.84478
head 15.19 -3.16738 -0.384229
rclavicle -2.83268e-015 -3.18055e-015
rhumerus -53.7231 24.1529 -93.8631
rradius 31.8662
rwrist -4.97996
rhand -23.8244 -16.1608
rfingers 7.12502
rthumb 2.64698 -46.1241
lclavicle -2.83268e-015 -3.18055e-015
lhumerus -46.8796 -0.0552809 76.8736
lradius 29.2665
lwrist -1.71714
lhand -21.845 24.873
lfingers 7.12502
lthumb 4.5584 54.8039
rfemur -0.710415 24.1021 35.6937
rtibia -5.71593
rfoot -23.4376 -24.6824
rtoes 1.16081
lfemur 1.64773 -44.2296 -28.5256
ltibia -4.54771
lfoot -44.3424 -1.2161
ltoes -17.0484
